<svg viewBox="0 0 440 440" aria-hidden="true" role="img" width="44" height="44" preserveAspectRatio="xMidYMid meet" xmlns="http://www.w3.org/2000/svg">
<style>
.favicon__scheme { fill: #485b7f; }
@media (prefers-color-scheme: dark) { .favicon__scheme { fill: #9ca3af; } }
</style>
<path class="favicon__scheme" d="M414.882,52.165h-36.85c-7.379,0-7.953,4.914-7.953,6.419v171.414l-115.562-114.58 c-6.161-8.009-14.799-12.069-25.678-12.069h-18.459c-10.859,0.13-19.483,4.188-25.635,12.062L69.177,229.999V58.484l-0.007-0.101 c-0.134-1.87-1.201-6.217-8.201-6.217H24.374c-7.616,0-8.208,4.914-8.208,6.419v229.651l0.006,0.192 c0.131,1.926,1.191,6.406,8.202,6.406l36.628-0.001c10.872-0.128,19.503-4.195,25.656-12.089l132.716-137.886l132.962,137.88 c6.162,8.026,14.806,12.096,25.696,12.096h36.899l0.049-0.002c7.288-0.255,7.854-5.113,7.854-6.597V58.585 C422.835,57.079,422.261,52.165,414.882,52.165z"/>
<path class="favicon__scheme" d="M368.489,327.371c-4.215-10.21-15.909-15.069-26.119-10.854L239,359.197V228c0-11.046-8.954-20-20-20 s-20,8.954-20,20v131.675L97.838,316.602c-10.162-4.327-21.909,0.402-26.236,10.565s0.404,21.909,10.566,26.237l132.63,56.471 l3.086,1.314l3.101-1.28l136.651-56.421C367.845,349.274,372.705,337.58,368.489,327.371z"/>
</svg>