<svg viewBox="0 0 440 440" aria-hidden="true" role="img" width="44" height="44" preserveAspectRatio="xMidYMid meet" xmlns="http://www.w3.org/2000/svg">
<path d="M420 58.5844L420 288.236C420 290.626 418.294 291.881 414.882 292L378.032 292C367.966 292 360.119 288.296 354.489 280.888L219.372 140.773L84.5112 280.888C78.8813 288.177 71.0336 291.881 60.9681 292L24.374 292C20.9619 292 19.1706 290.745 19 288.236L19 58.5844C19 56.1948 20.7913 55 24.374 55L60.9681 55C64.3802 55 66.1715 56.1948 66.3421 58.5844L66.3421 236.801L186.872 117.296C192.502 110.007 200.35 106.304 210.415 106.184L228.84 106.184C238.906 106.184 246.754 109.888 252.384 117.296L372.914 236.801L372.914 58.5844C372.914 56.1948 374.62 55 378.032 55L414.882 55C418.294 55 420 56.1948 420 58.5844Z" fill="#485B7F"/>
<path fill-rule="evenodd" clip-rule="evenodd" d="M231 228C231 221.373 225.627 216 219 216C212.373 216 207 221.373 207 228V371.776L94.7041 323.962C88.6064 321.366 81.5585 324.204 78.9622 330.302C76.3659 336.4 79.2044 343.448 85.3021 346.044L217.932 402.515L354.583 346.095C360.708 343.566 363.624 336.549 361.095 330.424C358.566 324.298 351.549 321.382 345.424 323.911L231 371.154L231 228Z" fill="#485B7F"/>
<path d="M219 216L219 208H219V216ZM231 228L239 228V228H231ZM207 371.776L203.866 379.136L215 383.877V371.776H207ZM94.7041 323.962L97.8381 316.602L97.8381 316.602L94.7041 323.962ZM78.9622 330.302L71.6017 327.168L71.6017 327.168L78.9622 330.302ZM85.3021 346.044L88.4361 338.683L88.4361 338.683L85.3021 346.044ZM217.932 402.515L214.798 409.876L217.884 411.19L220.985 409.91L217.932 402.515ZM354.583 346.095L351.53 338.7L351.53 338.7L354.583 346.095ZM361.095 330.424L353.7 333.477L353.7 333.477L361.095 330.424ZM345.424 323.911L342.37 316.517L342.37 316.517L345.424 323.911ZM231 371.154L223 371.154L223 383.113L234.053 378.549L231 371.154ZM219 224C221.209 224 223 225.791 223 228H239C239 216.954 230.046 208 219 208L219 224ZM215 228C215 225.791 216.791 224 219 224V208C207.954 208 199 216.954 199 228H215ZM215 371.776V228H199V371.776H215ZM91.5701 331.323L203.866 379.136L210.134 364.415L97.8381 316.602L91.5701 331.323ZM86.3228 333.436C87.1882 331.404 89.5375 330.457 91.5701 331.323L97.8381 316.602C87.6752 312.275 75.9288 317.005 71.6017 327.168L86.3228 333.436ZM88.4361 338.683C86.4035 337.818 85.4574 335.469 86.3228 333.436L71.6017 327.168C67.2745 337.331 72.0053 349.077 82.1681 353.405L88.4361 338.683ZM221.066 395.155L88.4361 338.683L82.1681 353.405L214.798 409.876L221.066 395.155ZM351.53 338.7L214.879 395.121L220.985 409.91L357.636 353.489L351.53 338.7ZM353.7 333.477C354.543 335.519 353.572 337.857 351.53 338.7L357.636 353.489C367.845 349.274 372.705 337.58 368.489 327.371L353.7 333.477ZM348.477 331.306C350.519 330.463 352.857 331.435 353.7 333.477L368.489 327.371C364.274 317.161 352.58 312.301 342.37 316.517L348.477 331.306ZM234.053 378.549L348.477 331.306L342.37 316.517L227.947 363.76L234.053 378.549ZM223 228L223 371.154L239 371.154L239 228L223 228Z" fill="#485B7F"/>
</svg>
