<svg width="195" height="177" viewBox="0 0 195 177" xmlns="http://www.w3.org/2000/svg">
<path d="M36.6217 71.4077C33.9561 72.3799 31.1434 72.502 28.4857 71.76C24.8773 70.7529 21.9262 68.274 20.1782 64.782C18.8419 62.1113 18.3213 59.0814 18.6739 56.0131C18.7548 55.3147 19.1396 54.6851 19.7281 54.2902C19.8917 54.1803 20.0659 54.0914 20.2495 54.0268C20.7188 53.8551 21.2376 53.8307 21.7286 53.9684L43.7383 60.1146C44.4182 60.3038 44.9788 60.7834 45.2687 61.4225C45.5578 62.0625 45.549 62.7992 45.2435 63.4366C43.431 67.2103 40.3676 70.0423 36.6217 71.4077Z" fill="black"/>
<path d="M194.497 9.91026C193.958 -0.0993971 174.699 -0.166535 167.125 0.478686C155.708 1.45175 143.985 4.2201 133.829 9.63386C128.137 12.6681 122.451 16.5168 117.61 20.7997C109.163 28.2764 102.476 37.2877 96.8837 47.0515C96.3439 47.9949 95.0503 48.5128 94.0083 48.2024C94.0083 48.2024 86.5948 45.993 81.4586 45.993C61.506 45.993 45.3314 60.929 45.3314 79.344C45.3314 84.3889 46.511 89.1644 48.622 93.4961C47.3006 93.3706 45.9643 93.2947 44.6089 93.2947C19.5252 93.2947 0.0696411 115.25 0.0696411 141.25C0.0696411 160.254 17.2192 176.044 16.9441 175.218C17.6553 176.039 19.1265 176.711 20.2121 176.711H30.2999C31.3846 176.711 32.2742 175.821 32.2742 174.734V157.465C32.2742 156.378 33.1622 155.488 34.2486 155.488H55.8057C56.8913 155.488 57.7801 156.378 57.7801 157.465V174.734C57.7801 175.821 58.6689 176.711 59.7544 176.711H69.0091C70.0947 176.711 71.5659 176.039 72.2762 175.218C72.002 176.044 89.1516 160.254 89.1516 141.25C89.1516 131.786 86.5626 122.864 82.0724 115.335C89.0654 116.506 95.4734 119.8 102.169 122.012C113.108 125.627 132.275 131.215 141.869 121.849C144.652 119.133 148.307 113.166 147.738 108.702C147.498 106.818 146.707 104.493 144.378 104.21C135.952 103.189 127.658 101.797 121.018 100.876C115.492 100.11 107.887 99.1331 104.362 94.021C98.6108 85.6793 112.243 68.2566 117.176 62.4374C123.828 54.5901 131.997 47.7551 141.328 43.2185C149.25 39.3664 157.793 38.6688 166.463 38.4116C173.815 38.1936 184.398 38.9261 187.936 32.711C191.207 26.9598 194.973 18.7463 194.497 9.91026Z" fill="black"/>
<path d="M72.7541 71.4975C74.998 71.4975 76.8169 69.6757 76.8169 67.4283C76.8169 65.1809 74.998 63.359 72.7541 63.359C70.5103 63.359 68.6913 65.1809 68.6913 67.4283C68.6913 69.6757 70.5103 71.4975 72.7541 71.4975Z" fill="white"/>
</svg>
